<?xml version="1.0" encoding="UTF-8" standalone="no"?>
<!DOCTYPE svg PUBLIC "-//W3C//DTD SVG 1.1//EN"
 "http://www.w3.org/Graphics/SVG/1.1/DTD/svg11.dtd">
<!-- Generated by graphviz version 2.30.1 (20180828.1746)
 -->
<!-- Title: %3 Pages: 1 -->
<svg width="1073pt" height="404pt"
 viewBox="0.00 0.00 1073.00 404.00" xmlns="http://www.w3.org/2000/svg" xmlns:xlink="http://www.w3.org/1999/xlink">
<g id="graph0" class="graph" transform="scale(1 1) rotate(0) translate(4 400)">
<title>%3</title>
<polygon fill="white" stroke="white" points="-4,5 -4,-400 1070,-400 1070,5 -4,5"/>
<!-- [root] aws_eip.lb (expand) -->
<g id="node1" class="node"><title>[root] aws_eip.lb (expand)</title>
<polygon fill="none" stroke="black" points="291,-180 217,-180 217,-144 291,-144 291,-180"/>
<text text-anchor="middle" x="254" y="-158.3" font-family="Times,serif" font-size="14.00">aws_eip.lb</text>
</g>
<!-- [root] provider[&quot;registry.terraform.io/hashicorp/aws&quot;] -->
<g id="node4" class="node"><title>[root] provider[&quot;registry.terraform.io/hashicorp/aws&quot;]</title>
<polygon fill="none" stroke="black" points="385,-108 134.984,-90 385,-72 635.016,-90 385,-108"/>
<text text-anchor="middle" x="385" y="-86.3" font-family="Times,serif" font-size="14.00">provider[&quot;registry.terraform.io/hashicorp/aws&quot;]</text>
</g>
<!-- [root] aws_eip.lb (expand)&#45;&gt;[root] provider[&quot;registry.terraform.io/hashicorp/aws&quot;] -->
<g id="edge1" class="edge"><title>[root] aws_eip.lb (expand)&#45;&gt;[root] provider[&quot;registry.terraform.io/hashicorp/aws&quot;]</title>
<path fill="none" stroke="black" d="M286.046,-143.876C304.748,-133.883 328.424,-121.232 347.927,-110.81"/>
<polygon fill="black" stroke="black" points="349.673,-113.845 356.843,-106.046 346.374,-107.672 349.673,-113.845"/>
</g>
<!-- [root] var.instance_count -->
<g id="node6" class="node"><title>[root] var.instance_count</title>
<polygon fill="none" stroke="black" points="110.25,-108 -0.25,-108 -0.25,-72 116.25,-72 116.25,-102 110.25,-108"/>
<polyline fill="none" stroke="black" points="110.25,-108 110.25,-102 "/>
<polyline fill="none" stroke="black" points="116.25,-102 110.25,-102 "/>
<text text-anchor="middle" x="58" y="-86.3" font-family="Times,serif" font-size="14.00">var.instance_count</text>
</g>
<!-- [root] aws_eip.lb (expand)&#45;&gt;[root] var.instance_count -->
<g id="edge2" class="edge"><title>[root] aws_eip.lb (expand)&#45;&gt;[root] var.instance_count</title>
<path fill="none" stroke="black" d="M216.673,-147.669C187.963,-137.415 147.8,-123.071 115.065,-111.38"/>
<polygon fill="black" stroke="black" points="116.201,-108.07 105.606,-108.002 113.847,-114.662 116.201,-108.07"/>
</g>
<!-- [root] aws_eip_association.assoc_eip (expand) -->
<g id="node2" class="node"><title>[root] aws_eip_association.assoc_eip (expand)</title>
<polygon fill="none" stroke="black" points="345,-252 163,-252 163,-216 345,-216 345,-252"/>
<text text-anchor="middle" x="254" y="-230.3" font-family="Times,serif" font-size="14.00">aws_eip_association.assoc_eip</text>
</g>
<!-- [root] aws_eip_association.assoc_eip (expand)&#45;&gt;[root] aws_eip.lb (expand) -->
<g id="edge3" class="edge"><title>[root] aws_eip_association.assoc_eip (expand)&#45;&gt;[root] aws_eip.lb (expand)</title>
<path fill="none" stroke="black" d="M254,-215.697C254,-207.983 254,-198.712 254,-190.112"/>
<polygon fill="black" stroke="black" points="257.5,-190.104 254,-180.104 250.5,-190.104 257.5,-190.104"/>
</g>
<!-- [root] aws_instance.b (expand) -->
<g id="node3" class="node"><title>[root] aws_instance.b (expand)</title>
<polygon fill="none" stroke="black" points="730,-180 632,-180 632,-144 730,-144 730,-180"/>
<text text-anchor="middle" x="681" y="-158.3" font-family="Times,serif" font-size="14.00">aws_instance.b</text>
</g>
<!-- [root] aws_eip_association.assoc_eip (expand)&#45;&gt;[root] aws_instance.b (expand) -->
<g id="edge4" class="edge"><title>[root] aws_eip_association.assoc_eip (expand)&#45;&gt;[root] aws_instance.b (expand)</title>
<path fill="none" stroke="black" d="M345.013,-217.497C348.045,-216.991 351.047,-216.49 354,-216 447.571,-200.464 556.299,-182.948 621.817,-172.452"/>
<polygon fill="black" stroke="black" points="622.631,-175.866 631.952,-170.829 621.525,-168.954 622.631,-175.866"/>
</g>
<!-- [root] aws_instance.b (expand)&#45;&gt;[root] provider[&quot;registry.terraform.io/hashicorp/aws&quot;] -->
<g id="edge5" class="edge"><title>[root] aws_instance.b (expand)&#45;&gt;[root] provider[&quot;registry.terraform.io/hashicorp/aws&quot;]</title>
<path fill="none" stroke="black" d="M631.789,-149.362C582.034,-137.596 504.864,-119.346 450.078,-106.39"/>
<polygon fill="black" stroke="black" points="450.658,-102.931 440.121,-104.035 449.047,-109.743 450.658,-102.931"/>
</g>
<!-- [root] var.env -->
<g id="node5" class="node"><title>[root] var.env</title>
<polygon fill="none" stroke="black" points="702.25,-108 653.75,-108 653.75,-72 708.25,-72 708.25,-102 702.25,-108"/>
<polyline fill="none" stroke="black" points="702.25,-108 702.25,-102 "/>
<polyline fill="none" stroke="black" points="708.25,-102 702.25,-102 "/>
<text text-anchor="middle" x="681" y="-86.3" font-family="Times,serif" font-size="14.00">var.env</text>
</g>
<!-- [root] aws_instance.b (expand)&#45;&gt;[root] var.env -->
<g id="edge6" class="edge"><title>[root] aws_instance.b (expand)&#45;&gt;[root] var.env</title>
<path fill="none" stroke="black" d="M681,-143.697C681,-135.983 681,-126.712 681,-118.112"/>
<polygon fill="black" stroke="black" points="684.5,-118.104 681,-108.104 677.5,-118.104 684.5,-118.104"/>
</g>
<!-- [root] aws_instance.b (expand)&#45;&gt;[root] var.instance_count -->
<g id="edge7" class="edge"><title>[root] aws_instance.b (expand)&#45;&gt;[root] var.instance_count</title>
<path fill="none" stroke="black" d="M631.673,-158.773C536.03,-153.917 318.663,-140.263 126.488,-107.917"/>
<polygon fill="black" stroke="black" points="126.933,-104.442 116.487,-106.213 125.757,-111.343 126.933,-104.442"/>
</g>
<!-- [root] var.type_instance -->
<g id="node8" class="node"><title>[root] var.type_instance</title>
<polygon fill="none" stroke="black" points="831,-108 727,-108 727,-72 837,-72 837,-102 831,-108"/>
<polyline fill="none" stroke="black" points="831,-108 831,-102 "/>
<polyline fill="none" stroke="black" points="837,-102 831,-102 "/>
<text text-anchor="middle" x="782" y="-86.3" font-family="Times,serif" font-size="14.00">var.type_instance</text>
</g>
<!-- [root] aws_instance.b (expand)&#45;&gt;[root] var.type_instance -->
<g id="edge8" class="edge"><title>[root] aws_instance.b (expand)&#45;&gt;[root] var.type_instance</title>
<path fill="none" stroke="black" d="M705.707,-143.876C718.669,-134.893 734.728,-123.763 748.765,-114.034"/>
<polygon fill="black" stroke="black" points="750.972,-116.763 757.198,-108.19 746.985,-111.009 750.972,-116.763"/>
</g>
<!-- [root] var.zones -->
<g id="node9" class="node"><title>[root] var.zones</title>
<polygon fill="none" stroke="black" points="916.25,-108 855.75,-108 855.75,-72 922.25,-72 922.25,-102 916.25,-108"/>
<polyline fill="none" stroke="black" points="916.25,-108 916.25,-102 "/>
<polyline fill="none" stroke="black" points="922.25,-102 916.25,-102 "/>
<text text-anchor="middle" x="889" y="-86.3" font-family="Times,serif" font-size="14.00">var.zones</text>
</g>
<!-- [root] aws_instance.b (expand)&#45;&gt;[root] var.zones -->
<g id="edge9" class="edge"><title>[root] aws_instance.b (expand)&#45;&gt;[root] var.zones</title>
<path fill="none" stroke="black" d="M730.017,-146.181C762.989,-135.986 807.332,-121.837 846,-108 846.099,-107.965 846.199,-107.929 846.298,-107.893"/>
<polygon fill="black" stroke="black" points="847.584,-111.149 855.747,-104.396 845.154,-104.585 847.584,-111.149"/>
</g>
<!-- [root] var.region -->
<g id="node7" class="node"><title>[root] var.region</title>
<polygon fill="none" stroke="black" points="414.25,-36 349.75,-36 349.75,-0 420.25,-0 420.25,-30 414.25,-36"/>
<polyline fill="none" stroke="black" points="414.25,-36 414.25,-30 "/>
<polyline fill="none" stroke="black" points="420.25,-30 414.25,-30 "/>
<text text-anchor="middle" x="385" y="-14.3" font-family="Times,serif" font-size="14.00">var.region</text>
</g>
<!-- [root] provider[&quot;registry.terraform.io/hashicorp/aws&quot;]&#45;&gt;[root] var.region -->
<g id="edge14" class="edge"><title>[root] provider[&quot;registry.terraform.io/hashicorp/aws&quot;]&#45;&gt;[root] var.region</title>
<path fill="none" stroke="black" d="M385,-71.6966C385,-63.9827 385,-54.7125 385,-46.1124"/>
<polygon fill="black" stroke="black" points="388.5,-46.1043 385,-36.1043 381.5,-46.1044 388.5,-46.1043"/>
</g>
<!-- [root] output.private_ip_n_dns (expand) -->
<g id="node10" class="node"><title>[root] output.private_ip_n_dns (expand)</title>
<ellipse fill="none" stroke="black" cx="514" cy="-234" rx="151.155" ry="18"/>
<text text-anchor="middle" x="514" y="-230.3" font-family="Times,serif" font-size="14.00">[root] output.private_ip_n_dns (expand)</text>
</g>
<!-- [root] output.private_ip_n_dns (expand)&#45;&gt;[root] aws_instance.b (expand) -->
<g id="edge10" class="edge"><title>[root] output.private_ip_n_dns (expand)&#45;&gt;[root] aws_instance.b (expand)</title>
<path fill="none" stroke="black" d="M553.154,-216.588C576.406,-206.842 606.121,-194.386 631.051,-183.937"/>
<polygon fill="black" stroke="black" points="632.478,-187.134 640.347,-180.04 629.772,-180.678 632.478,-187.134"/>
</g>
<!-- [root] output.public_dns (expand) -->
<g id="node11" class="node"><title>[root] output.public_dns (expand)</title>
<ellipse fill="none" stroke="black" cx="813" cy="-234" rx="129.483" ry="18"/>
<text text-anchor="middle" x="813" y="-230.3" font-family="Times,serif" font-size="14.00">[root] output.public_dns (expand)</text>
</g>
<!-- [root] output.public_dns (expand)&#45;&gt;[root] aws_instance.b (expand) -->
<g id="edge11" class="edge"><title>[root] output.public_dns (expand)&#45;&gt;[root] aws_instance.b (expand)</title>
<path fill="none" stroke="black" d="M781.718,-216.411C763.948,-206.987 741.483,-195.075 722.282,-184.892"/>
<polygon fill="black" stroke="black" points="723.911,-181.794 713.436,-180.201 720.631,-187.978 723.911,-181.794"/>
</g>
<!-- [root] output.public_ips (expand) -->
<g id="node12" class="node"><title>[root] output.public_ips (expand)</title>
<ellipse fill="none" stroke="black" cx="937" cy="-306" rx="128.058" ry="18"/>
<text text-anchor="middle" x="937" y="-302.3" font-family="Times,serif" font-size="14.00">[root] output.public_ips (expand)</text>
</g>
<!-- [root] output.public_ips (expand)&#45;&gt;[root] aws_instance.b (expand) -->
<g id="edge12" class="edge"><title>[root] output.public_ips (expand)&#45;&gt;[root] aws_instance.b (expand)</title>
<path fill="none" stroke="black" d="M946.744,-287.874C956.449,-268.28 967.696,-236.292 951,-216 924.856,-184.225 811.624,-171.214 740.357,-166.103"/>
<polygon fill="black" stroke="black" points="740.378,-162.596 730.162,-165.405 739.9,-169.58 740.378,-162.596"/>
</g>
<!-- [root] provider[&quot;registry.terraform.io/hashicorp/aws&quot;] (close) -->
<g id="node13" class="node"><title>[root] provider[&quot;registry.terraform.io/hashicorp/aws&quot;] (close)</title>
<ellipse fill="none" stroke="black" cx="290" cy="-306" rx="225.295" ry="18"/>
<text text-anchor="middle" x="290" y="-302.3" font-family="Times,serif" font-size="14.00">[root] provider[&quot;registry.terraform.io/hashicorp/aws&quot;] (close)</text>
</g>
<!-- [root] provider[&quot;registry.terraform.io/hashicorp/aws&quot;] (close)&#45;&gt;[root] aws_eip_association.assoc_eip (expand) -->
<g id="edge13" class="edge"><title>[root] provider[&quot;registry.terraform.io/hashicorp/aws&quot;] (close)&#45;&gt;[root] aws_eip_association.assoc_eip (expand)</title>
<path fill="none" stroke="black" d="M281.101,-287.697C277.003,-279.728 272.051,-270.1 267.507,-261.264"/>
<polygon fill="black" stroke="black" points="270.483,-259.396 262.797,-252.104 264.258,-262.598 270.483,-259.396"/>
</g>
<!-- [root] root -->
<g id="node14" class="node"><title>[root] root</title>
<ellipse fill="none" stroke="black" cx="631" cy="-378" rx="47.169" ry="18"/>
<text text-anchor="middle" x="631" y="-374.3" font-family="Times,serif" font-size="14.00">[root] root</text>
</g>
<!-- [root] root&#45;&gt;[root] output.private_ip_n_dns (expand) -->
<g id="edge15" class="edge"><title>[root] root&#45;&gt;[root] output.private_ip_n_dns (expand)</title>
<path fill="none" stroke="black" d="M617.579,-360.711C597.256,-336.046 558.517,-289.029 534.605,-260.008"/>
<polygon fill="black" stroke="black" points="537.05,-257.471 527.989,-251.979 531.647,-261.922 537.05,-257.471"/>
</g>
<!-- [root] root&#45;&gt;[root] output.public_dns (expand) -->
<g id="edge16" class="edge"><title>[root] root&#45;&gt;[root] output.public_dns (expand)</title>
<path fill="none" stroke="black" d="M650.824,-361.533C682.857,-336.54 746.176,-287.137 783.514,-258.005"/>
<polygon fill="black" stroke="black" points="785.784,-260.673 791.516,-251.763 781.478,-255.155 785.784,-260.673"/>
</g>
<!-- [root] root&#45;&gt;[root] output.public_ips (expand) -->
<g id="edge17" class="edge"><title>[root] root&#45;&gt;[root] output.public_ips (expand)</title>
<path fill="none" stroke="black" d="M670.378,-367.992C718.925,-356.886 802.437,-337.782 863.085,-323.909"/>
<polygon fill="black" stroke="black" points="864.024,-327.284 872.991,-321.642 862.463,-320.461 864.024,-327.284"/>
</g>
<!-- [root] root&#45;&gt;[root] provider[&quot;registry.terraform.io/hashicorp/aws&quot;] (close) -->
<g id="edge18" class="edge"><title>[root] root&#45;&gt;[root] provider[&quot;registry.terraform.io/hashicorp/aws&quot;] (close)</title>
<path fill="none" stroke="black" d="M590.544,-368.695C538.333,-357.977 446.067,-339.037 377.494,-324.961"/>
<polygon fill="black" stroke="black" points="378.056,-321.503 367.556,-322.921 376.648,-328.36 378.056,-321.503"/>
</g>
</g>
</svg>
