<?xml version="1.0" encoding="UTF-8" standalone="no"?>
<!DOCTYPE svg PUBLIC "-//W3C//DTD SVG 1.1//EN"
 "http://www.w3.org/Graphics/SVG/1.1/DTD/svg11.dtd">
<!-- Generated by graphviz version 2.30.1 (20180828.1746)
 -->
<!-- Title: %3 Pages: 1 -->
<svg width="1771pt" height="332pt"
 viewBox="0.00 0.00 1771.00 332.00" xmlns="http://www.w3.org/2000/svg" xmlns:xlink="http://www.w3.org/1999/xlink">
<g id="graph0" class="graph" transform="scale(1 1) rotate(0) translate(4 328)">
<title>%3</title>
<polygon fill="white" stroke="white" points="-4,5 -4,-328 1768,-328 1768,5 -4,5"/>
<!-- [root] aws_instance.east_backend (expand) -->
<g id="node1" class="node"><title>[root] aws_instance.east_backend (expand)</title>
<polygon fill="none" stroke="black" points="673,-108 509,-108 509,-72 673,-72 673,-108"/>
<text text-anchor="middle" x="591" y="-86.3" font-family="Times,serif" font-size="14.00">aws_instance.east_backend</text>
</g>
<!-- [root] provider[&quot;registry.terraform.io/hashicorp/aws&quot;] -->
<g id="node5" class="node"><title>[root] provider[&quot;registry.terraform.io/hashicorp/aws&quot;]</title>
<polygon fill="none" stroke="black" points="250,-36 -0.0161616,-18 250,-3.55271e-15 500.016,-18 250,-36"/>
<text text-anchor="middle" x="250" y="-14.3" font-family="Times,serif" font-size="14.00">provider[&quot;registry.terraform.io/hashicorp/aws&quot;]</text>
</g>
<!-- [root] aws_instance.east_backend (expand)&#45;&gt;[root] provider[&quot;registry.terraform.io/hashicorp/aws&quot;] -->
<g id="edge1" class="edge"><title>[root] aws_instance.east_backend (expand)&#45;&gt;[root] provider[&quot;registry.terraform.io/hashicorp/aws&quot;]</title>
<path fill="none" stroke="black" d="M508.888,-72.1442C451.653,-60.3951 376.051,-44.8756 321.334,-33.6434"/>
<polygon fill="black" stroke="black" points="321.869,-30.1803 311.37,-31.5979 320.462,-37.0373 321.869,-30.1803"/>
</g>
<!-- [root] var.east_ami -->
<g id="node7" class="node"><title>[root] var.east_ami</title>
<polygon fill="none" stroke="black" points="597.25,-36 518.75,-36 518.75,-0 603.25,-0 603.25,-30 597.25,-36"/>
<polyline fill="none" stroke="black" points="597.25,-36 597.25,-30 "/>
<polyline fill="none" stroke="black" points="603.25,-30 597.25,-30 "/>
<text text-anchor="middle" x="561" y="-14.3" font-family="Times,serif" font-size="14.00">var.east_ami</text>
</g>
<!-- [root] aws_instance.east_backend (expand)&#45;&gt;[root] var.east_ami -->
<g id="edge2" class="edge"><title>[root] aws_instance.east_backend (expand)&#45;&gt;[root] var.east_ami</title>
<path fill="none" stroke="black" d="M583.584,-71.6966C580.206,-63.8132 576.13,-54.3042 572.377,-45.5464"/>
<polygon fill="black" stroke="black" points="575.487,-43.9171 568.33,-36.1043 569.053,-46.6745 575.487,-43.9171"/>
</g>
<!-- [root] var.instance_count -->
<g id="node8" class="node"><title>[root] var.instance_count</title>
<polygon fill="none" stroke="black" points="845.25,-36 734.75,-36 734.75,-0 851.25,-0 851.25,-30 845.25,-36"/>
<polyline fill="none" stroke="black" points="845.25,-36 845.25,-30 "/>
<polyline fill="none" stroke="black" points="851.25,-30 845.25,-30 "/>
<text text-anchor="middle" x="793" y="-14.3" font-family="Times,serif" font-size="14.00">var.instance_count</text>
</g>
<!-- [root] aws_instance.east_backend (expand)&#45;&gt;[root] var.instance_count -->
<g id="edge3" class="edge"><title>[root] aws_instance.east_backend (expand)&#45;&gt;[root] var.instance_count</title>
<path fill="none" stroke="black" d="M640.156,-71.9656C668.503,-62.1425 704.325,-49.7291 734.163,-39.3891"/>
<polygon fill="black" stroke="black" points="735.32,-42.6923 743.623,-36.1108 733.028,-36.0781 735.32,-42.6923"/>
</g>
<!-- [root] var.zones_east -->
<g id="node10" class="node"><title>[root] var.zones_east</title>
<polygon fill="none" stroke="black" points="710.25,-36 621.75,-36 621.75,-0 716.25,-0 716.25,-30 710.25,-36"/>
<polyline fill="none" stroke="black" points="710.25,-36 710.25,-30 "/>
<polyline fill="none" stroke="black" points="716.25,-30 710.25,-30 "/>
<text text-anchor="middle" x="669" y="-14.3" font-family="Times,serif" font-size="14.00">var.zones_east</text>
</g>
<!-- [root] aws_instance.east_backend (expand)&#45;&gt;[root] var.zones_east -->
<g id="edge4" class="edge"><title>[root] aws_instance.east_backend (expand)&#45;&gt;[root] var.zones_east</title>
<path fill="none" stroke="black" d="M610.281,-71.6966C619.915,-63.0503 631.729,-52.4486 642.227,-43.027"/>
<polygon fill="black" stroke="black" points="644.836,-45.3883 649.941,-36.1043 640.161,-40.1786 644.836,-45.3883"/>
</g>
<!-- [root] aws_instance.east_frontend (expand) -->
<g id="node2" class="node"><title>[root] aws_instance.east_frontend (expand)</title>
<polygon fill="none" stroke="black" points="732,-180 568,-180 568,-144 732,-144 732,-180"/>
<text text-anchor="middle" x="650" y="-158.3" font-family="Times,serif" font-size="14.00">aws_instance.east_frontend</text>
</g>
<!-- [root] aws_instance.east_frontend (expand)&#45;&gt;[root] aws_instance.east_backend (expand) -->
<g id="edge5" class="edge"><title>[root] aws_instance.east_frontend (expand)&#45;&gt;[root] aws_instance.east_backend (expand)</title>
<path fill="none" stroke="black" d="M635.416,-143.697C628.342,-135.305 619.717,-125.07 611.955,-115.861"/>
<polygon fill="black" stroke="black" points="614.537,-113.495 605.417,-108.104 609.185,-118.006 614.537,-113.495"/>
</g>
<!-- [root] aws_instance.west_backend (expand) -->
<g id="node3" class="node"><title>[root] aws_instance.west_backend (expand)</title>
<polygon fill="none" stroke="black" points="1586.25,-108 1419.75,-108 1419.75,-72 1586.25,-72 1586.25,-108"/>
<text text-anchor="middle" x="1503" y="-86.3" font-family="Times,serif" font-size="14.00">aws_instance.west_backend</text>
</g>
<!-- [root] provider[&quot;registry.terraform.io/hashicorp/aws&quot;].us&#45;west&#45;1 -->
<g id="node6" class="node"><title>[root] provider[&quot;registry.terraform.io/hashicorp/aws&quot;].us&#45;west&#45;1</title>
<polygon fill="none" stroke="black" points="1170,-36 869.653,-18 1170,-3.55271e-15 1470.35,-18 1170,-36"/>
<text text-anchor="middle" x="1170" y="-14.3" font-family="Times,serif" font-size="14.00">provider[&quot;registry.terraform.io/hashicorp/aws&quot;].us&#45;west&#45;1</text>
</g>
<!-- [root] aws_instance.west_backend (expand)&#45;&gt;[root] provider[&quot;registry.terraform.io/hashicorp/aws&quot;].us&#45;west&#45;1 -->
<g id="edge6" class="edge"><title>[root] aws_instance.west_backend (expand)&#45;&gt;[root] provider[&quot;registry.terraform.io/hashicorp/aws&quot;].us&#45;west&#45;1</title>
<path fill="none" stroke="black" d="M1421.96,-71.9656C1367.34,-60.4839 1295.89,-45.4633 1243.03,-34.3513"/>
<polygon fill="black" stroke="black" points="1243.56,-30.8857 1233.05,-32.2536 1242.12,-37.7359 1243.56,-30.8857"/>
</g>
<!-- [root] aws_instance.west_backend (expand)&#45;&gt;[root] var.instance_count -->
<g id="edge7" class="edge"><title>[root] aws_instance.west_backend (expand)&#45;&gt;[root] var.instance_count</title>
<path fill="none" stroke="black" d="M1419.73,-86.5545C1298.61,-82.0178 1066.77,-69.6423 861.412,-36.0778"/>
<polygon fill="black" stroke="black" points="861.782,-32.5915 851.344,-34.4117 860.639,-39.4976 861.782,-32.5915"/>
</g>
<!-- [root] var.west_ami -->
<g id="node9" class="node"><title>[root] var.west_ami</title>
<polygon fill="none" stroke="black" points="1571,-36 1489,-36 1489,-0 1577,-0 1577,-30 1571,-36"/>
<polyline fill="none" stroke="black" points="1571,-36 1571,-30 "/>
<polyline fill="none" stroke="black" points="1577,-30 1571,-30 "/>
<text text-anchor="middle" x="1533" y="-14.3" font-family="Times,serif" font-size="14.00">var.west_ami</text>
</g>
<!-- [root] aws_instance.west_backend (expand)&#45;&gt;[root] var.west_ami -->
<g id="edge8" class="edge"><title>[root] aws_instance.west_backend (expand)&#45;&gt;[root] var.west_ami</title>
<path fill="none" stroke="black" d="M1510.42,-71.6966C1513.79,-63.8132 1517.87,-54.3042 1521.62,-45.5464"/>
<polygon fill="black" stroke="black" points="1524.95,-46.6745 1525.67,-36.1043 1518.51,-43.9171 1524.95,-46.6745"/>
</g>
<!-- [root] var.zones_west -->
<g id="node11" class="node"><title>[root] var.zones_west</title>
<polygon fill="none" stroke="black" points="1687,-36 1595,-36 1595,-0 1693,-0 1693,-30 1687,-36"/>
<polyline fill="none" stroke="black" points="1687,-36 1687,-30 "/>
<polyline fill="none" stroke="black" points="1693,-30 1687,-30 "/>
<text text-anchor="middle" x="1644" y="-14.3" font-family="Times,serif" font-size="14.00">var.zones_west</text>
</g>
<!-- [root] aws_instance.west_backend (expand)&#45;&gt;[root] var.zones_west -->
<g id="edge9" class="edge"><title>[root] aws_instance.west_backend (expand)&#45;&gt;[root] var.zones_west</title>
<path fill="none" stroke="black" d="M1537.49,-71.8761C1556.44,-62.4693 1580.13,-50.7077 1600.36,-40.6672"/>
<polygon fill="black" stroke="black" points="1601.97,-43.7714 1609.37,-36.1898 1598.86,-37.5016 1601.97,-43.7714"/>
</g>
<!-- [root] aws_instance.west_frontend (expand) -->
<g id="node4" class="node"><title>[root] aws_instance.west_frontend (expand)</title>
<polygon fill="none" stroke="black" points="1586.25,-180 1419.75,-180 1419.75,-144 1586.25,-144 1586.25,-180"/>
<text text-anchor="middle" x="1503" y="-158.3" font-family="Times,serif" font-size="14.00">aws_instance.west_frontend</text>
</g>
<!-- [root] aws_instance.west_frontend (expand)&#45;&gt;[root] aws_instance.west_backend (expand) -->
<g id="edge10" class="edge"><title>[root] aws_instance.west_frontend (expand)&#45;&gt;[root] aws_instance.west_backend (expand)</title>
<path fill="none" stroke="black" d="M1503,-143.697C1503,-135.983 1503,-126.712 1503,-118.112"/>
<polygon fill="black" stroke="black" points="1506.5,-118.104 1503,-108.104 1499.5,-118.104 1506.5,-118.104"/>
</g>
<!-- [root] output.PublicIP_East_Backend (expand) -->
<g id="node12" class="node"><title>[root] output.PublicIP_East_Backend (expand)</title>
<ellipse fill="none" stroke="black" cx="374" cy="-162" rx="176.202" ry="18"/>
<text text-anchor="middle" x="374" y="-158.3" font-family="Times,serif" font-size="14.00">[root] output.PublicIP_East_Backend (expand)</text>
</g>
<!-- [root] output.PublicIP_East_Backend (expand)&#45;&gt;[root] aws_instance.east_backend (expand) -->
<g id="edge11" class="edge"><title>[root] output.PublicIP_East_Backend (expand)&#45;&gt;[root] aws_instance.east_backend (expand)</title>
<path fill="none" stroke="black" d="M424.603,-144.676C455.607,-134.675 495.531,-121.796 528.501,-111.161"/>
<polygon fill="black" stroke="black" points="529.603,-114.483 538.046,-108.082 527.454,-107.821 529.603,-114.483"/>
</g>
<!-- [root] output.PublicIP_East_Frontend (expand) -->
<g id="node13" class="node"><title>[root] output.PublicIP_East_Frontend (expand)</title>
<ellipse fill="none" stroke="black" cx="579" cy="-234" rx="176.177" ry="18"/>
<text text-anchor="middle" x="579" y="-230.3" font-family="Times,serif" font-size="14.00">[root] output.PublicIP_East_Frontend (expand)</text>
</g>
<!-- [root] output.PublicIP_East_Frontend (expand)&#45;&gt;[root] aws_instance.east_frontend (expand) -->
<g id="edge12" class="edge"><title>[root] output.PublicIP_East_Frontend (expand)&#45;&gt;[root] aws_instance.east_frontend (expand)</title>
<path fill="none" stroke="black" d="M596.187,-216.055C604.866,-207.498 615.555,-196.959 625.114,-187.535"/>
<polygon fill="black" stroke="black" points="627.814,-189.788 632.478,-180.275 622.9,-184.804 627.814,-189.788"/>
</g>
<!-- [root] provider[&quot;registry.terraform.io/hashicorp/aws&quot;] (close) -->
<g id="node14" class="node"><title>[root] provider[&quot;registry.terraform.io/hashicorp/aws&quot;] (close)</title>
<ellipse fill="none" stroke="black" cx="999" cy="-234" rx="225.295" ry="18"/>
<text text-anchor="middle" x="999" y="-230.3" font-family="Times,serif" font-size="14.00">[root] provider[&quot;registry.terraform.io/hashicorp/aws&quot;] (close)</text>
</g>
<!-- [root] provider[&quot;registry.terraform.io/hashicorp/aws&quot;] (close)&#45;&gt;[root] aws_instance.east_frontend (expand) -->
<g id="edge13" class="edge"><title>[root] provider[&quot;registry.terraform.io/hashicorp/aws&quot;] (close)&#45;&gt;[root] aws_instance.east_frontend (expand)</title>
<path fill="none" stroke="black" d="M919.806,-217.116C867.078,-206.54 797.603,-192.605 742.359,-181.525"/>
<polygon fill="black" stroke="black" points="742.709,-178.025 732.216,-179.49 741.333,-184.889 742.709,-178.025"/>
</g>
<!-- [root] provider[&quot;registry.terraform.io/hashicorp/aws&quot;].us&#45;west&#45;1 (close) -->
<g id="node15" class="node"><title>[root] provider[&quot;registry.terraform.io/hashicorp/aws&quot;].us&#45;west&#45;1 (close)</title>
<ellipse fill="none" stroke="black" cx="1503" cy="-234" rx="260.44" ry="18"/>
<text text-anchor="middle" x="1503" y="-230.3" font-family="Times,serif" font-size="14.00">[root] provider[&quot;registry.terraform.io/hashicorp/aws&quot;].us&#45;west&#45;1 (close)</text>
</g>
<!-- [root] provider[&quot;registry.terraform.io/hashicorp/aws&quot;].us&#45;west&#45;1 (close)&#45;&gt;[root] aws_instance.west_frontend (expand) -->
<g id="edge14" class="edge"><title>[root] provider[&quot;registry.terraform.io/hashicorp/aws&quot;].us&#45;west&#45;1 (close)&#45;&gt;[root] aws_instance.west_frontend (expand)</title>
<path fill="none" stroke="black" d="M1503,-215.697C1503,-207.983 1503,-198.712 1503,-190.112"/>
<polygon fill="black" stroke="black" points="1506.5,-190.104 1503,-180.104 1499.5,-190.104 1506.5,-190.104"/>
</g>
<!-- [root] root -->
<g id="node16" class="node"><title>[root] root</title>
<ellipse fill="none" stroke="black" cx="789" cy="-306" rx="47.169" ry="18"/>
<text text-anchor="middle" x="789" y="-302.3" font-family="Times,serif" font-size="14.00">[root] root</text>
</g>
<!-- [root] root&#45;&gt;[root] output.PublicIP_East_Backend (expand) -->
<g id="edge15" class="edge"><title>[root] root&#45;&gt;[root] output.PublicIP_East_Backend (expand)</title>
<path fill="none" stroke="black" d="M741.8,-305.238C647.988,-304.695 442.823,-298.115 393,-252 376.291,-236.535 372.373,-210.28 372.14,-190.283"/>
<polygon fill="black" stroke="black" points="375.64,-190.267 372.318,-180.207 368.642,-190.143 375.64,-190.267"/>
</g>
<!-- [root] root&#45;&gt;[root] output.PublicIP_East_Frontend (expand) -->
<g id="edge16" class="edge"><title>[root] root&#45;&gt;[root] output.PublicIP_East_Frontend (expand)</title>
<path fill="none" stroke="black" d="M754.323,-293.441C722.776,-282.925 675.554,-267.185 638.064,-254.688"/>
<polygon fill="black" stroke="black" points="638.858,-251.264 628.265,-251.422 636.645,-257.904 638.858,-251.264"/>
</g>
<!-- [root] root&#45;&gt;[root] provider[&quot;registry.terraform.io/hashicorp/aws&quot;] (close) -->
<g id="edge17" class="edge"><title>[root] root&#45;&gt;[root] provider[&quot;registry.terraform.io/hashicorp/aws&quot;] (close)</title>
<path fill="none" stroke="black" d="M823.677,-293.441C855.011,-282.996 901.806,-267.398 939.172,-254.943"/>
<polygon fill="black" stroke="black" points="940.566,-258.167 948.946,-251.685 938.352,-251.527 940.566,-258.167"/>
</g>
<!-- [root] root&#45;&gt;[root] provider[&quot;registry.terraform.io/hashicorp/aws&quot;].us&#45;west&#45;1 (close) -->
<g id="edge18" class="edge"><title>[root] root&#45;&gt;[root] provider[&quot;registry.terraform.io/hashicorp/aws&quot;].us&#45;west&#45;1 (close)</title>
<path fill="none" stroke="black" d="M834.206,-300.568C935.693,-290.618 1185.57,-266.121 1349.49,-250.05"/>
<polygon fill="black" stroke="black" points="1350.06,-253.511 1359.68,-249.051 1349.38,-246.544 1350.06,-253.511"/>
</g>
</g>
</svg>
